<?xml version="1.0" encoding="utf-8"?>
<!-- Generator: Adobe Illustrator 16.0.4, SVG Export Plug-In . SVG Version: 6.00 Build 0)  -->
<!DOCTYPE svg PUBLIC "-//W3C//DTD SVG 1.1//EN" "http://www.w3.org/Graphics/SVG/1.1/DTD/svg11.dtd">
<svg version="1.1" id="Capa_1" focusable="false" xmlns="http://www.w3.org/2000/svg" xmlns:xlink="http://www.w3.org/1999/xlink"
	 x="0px" y="0px" width="1280px" height="800px" viewBox="0 0 1280 800" enable-background="new 0 0 1280 800" xml:space="preserve"
	>
<path fill="#C20200" d="M865,100H740C740,44.844,695.156,0,640,0S540,44.844,540,100H415c-41.406,0-75,33.594-75,75v550
	c0,41.406,33.594,75,75,75h450c41.406,0,75-33.594,75-75V175C940,133.594,906.406,100,865,100z M490,662.5
	c-20.781,0-37.5-16.719-37.5-37.5s16.719-37.5,37.5-37.5s37.5,16.719,37.5,37.5S510.781,662.5,490,662.5z M490,512.5
	c-20.781,0-37.5-16.719-37.5-37.5s16.719-37.5,37.5-37.5s37.5,16.719,37.5,37.5S510.781,512.5,490,512.5z M490,362.5
	c-20.781,0-37.5-16.719-37.5-37.5s16.719-37.5,37.5-37.5s37.5,16.719,37.5,37.5S510.781,362.5,490,362.5z M640,62.5
	c20.781,0,37.5,16.719,37.5,37.5s-16.719,37.5-37.5,37.5s-37.5-16.719-37.5-37.5S619.219,62.5,640,62.5z M840,637.5
	c0,6.875-5.625,12.5-12.5,12.5h-225c-6.875,0-12.5-5.625-12.5-12.5v-25c0-6.875,5.625-12.5,12.5-12.5h225
	c6.875,0,12.5,5.625,12.5,12.5V637.5z M840,487.5c0,6.875-5.625,12.5-12.5,12.5h-225c-6.875,0-12.5-5.625-12.5-12.5v-25
	c0-6.875,5.625-12.5,12.5-12.5h225c6.875,0,12.5,5.625,12.5,12.5V487.5z M840,337.5c0,6.875-5.625,12.5-12.5,12.5h-225
	c-6.875,0-12.5-5.625-12.5-12.5v-25c0-6.875,5.625-12.5,12.5-12.5h225c6.875,0,12.5,5.625,12.5,12.5V337.5z"/>
</svg>
