<?xml version="1.0" encoding="utf-8"?>
<!-- Generator: Adobe Illustrator 16.0.4, SVG Export Plug-In . SVG Version: 6.00 Build 0)  -->
<!DOCTYPE svg PUBLIC "-//W3C//DTD SVG 1.1//EN" "http://www.w3.org/Graphics/SVG/1.1/DTD/svg11.dtd">
<svg version="1.1" id="Capa_1" focusable="false" xmlns="http://www.w3.org/2000/svg" xmlns:xlink="http://www.w3.org/1999/xlink"
	 x="0px" y="0px" width="1280px" height="800px" viewBox="0 0 1280 800" enable-background="new 0 0 1280 800" xml:space="preserve"
	>
<path fill="#C20200" d="M640,12.5c-214.062,0-387.5,173.438-387.5,387.5S425.938,787.5,640,787.5s387.5-173.438,387.5-387.5
	S854.062,12.5,640,12.5z M640,712.5c-172.656,0-312.5-139.844-312.5-312.5S467.344,87.5,640,87.5S952.5,227.344,952.5,400
	S812.656,712.5,640,712.5z M736.562,549.375l-132.656-96.406c-4.844-3.594-7.656-9.219-7.656-15.156V181.25
	c0-10.312,8.438-18.75,18.75-18.75h50c10.312,0,18.75,8.438,18.75,18.75v221.406l104.375,75.938
	c8.438,6.094,10.156,17.812,4.062,26.25l-29.375,40.469C756.719,553.594,745,555.469,736.562,549.375z"/>
</svg>
