<?xml version="1.0" encoding="utf-8"?>
<!-- Generator: Adobe Illustrator 16.0.4, SVG Export Plug-In . SVG Version: 6.00 Build 0)  -->
<!DOCTYPE svg PUBLIC "-//W3C//DTD SVG 1.1//EN" "http://www.w3.org/Graphics/SVG/1.1/DTD/svg11.dtd">
<svg version="1.1" id="Capa_1" focusable="false" xmlns="http://www.w3.org/2000/svg" xmlns:xlink="http://www.w3.org/1999/xlink"
	 x="0px" y="0px" width="1280px" height="800px" viewBox="0 0 1280 800" enable-background="new 0 0 1280 800" xml:space="preserve"
	>
<path fill="#C20200" d="M1021.25,603.438C1064.219,561.094,1090,507.969,1090,450c0-125-119.531-228.281-275.312-246.719
	C765.469,113.281,649.844,50,515,50c-179.531,0-325,111.875-325,250c0,57.812,25.781,110.938,68.75,153.438
	c-23.906,47.969-58.281,85.156-58.906,85.781C190,549.688,187.188,565,192.969,578.281c5.625,13.281,18.75,21.875,33.125,21.875
	c83.594,0,151.094-31.562,195.625-60.625c14.375,3.281,29.219,5.781,44.375,7.656C515.156,636.875,630.312,700,765,700
	c32.5,0,63.75-3.75,93.438-10.625C902.969,718.281,970.312,750,1054.062,750c14.375,0,27.344-8.594,33.125-21.875
	c5.625-13.281,2.969-28.594-6.875-39.062C1079.688,688.594,1045.156,651.406,1021.25,603.438z M407.5,459.219l-26.719,17.344
	C358.75,490.781,336.25,502.031,313.438,510c4.219-7.344,8.438-15.156,12.5-23.125l24.219-48.594L311.406,400
	C290.312,379.062,265,344.844,265,300c0-94.844,114.531-175,250-175s250,80.156,250,175S650.469,475,515,475
	c-25.781,0-51.562-2.969-76.562-8.75L407.5,459.219L407.5,459.219z M968.594,550L930,588.125l24.219,48.594
	c4.062,7.969,8.281,15.781,12.5,23.125c-22.812-7.969-45.312-19.219-67.344-33.438l-26.719-17.344l-31.094,7.188
	c-25,5.781-50.781,8.75-76.562,8.75c-84.375,0-159.688-31.406-205.156-77.656C718.125,530.469,840,426.406,840,300
	c0-5.312-0.625-10.469-1.094-15.625C939.531,307.031,1015,373.125,1015,450C1015,494.844,989.688,529.062,968.594,550z"/>
</svg>
