<?xml version="1.0" encoding="utf-8"?>
<!-- Generator: Adobe Illustrator 16.0.4, SVG Export Plug-In . SVG Version: 6.00 Build 0)  -->
<!DOCTYPE svg PUBLIC "-//W3C//DTD SVG 1.1//EN" "http://www.w3.org/Graphics/SVG/1.1/DTD/svg11.dtd">
<svg version="1.1" id="Capa_1" focusable="false" xmlns="http://www.w3.org/2000/svg" xmlns:xlink="http://www.w3.org/1999/xlink"
	 x="0px" y="0px" width="1280px" height="800px" viewBox="0 0 1280 800" enable-background="new 0 0 1280 800" xml:space="preserve"
	>
<path fill="#C20200" d="M1112.406,239.375L676.562,105.469c-23.75-7.297-49.375-7.297-73.109,0L167.594,239.375
	c-36.781,11.297-36.781,59.938,0,71.234l75.984,23.344c-16.672,20.609-26.922,45.75-27.938,73.281
	C200.594,415.859,190,431.422,190,450c0,16.844,8.875,31.016,21.656,40.078l-39.891,179.5C168.297,685.188,180.172,700,196.156,700
	h87.672c16,0,27.875-14.812,24.406-30.422l-39.891-179.5C281.125,481.016,290,466.844,290,450c0-18.078-10.109-33.203-24.469-41.984
	c1.188-23.469,13.188-44.219,32.328-57.375l305.578,93.891c14.156,4.344,41.312,9.766,73.109,0l435.859-133.906
	C1149.203,299.312,1149.203,250.688,1112.406,239.375z M691.234,492.328c-44.578,13.688-82.562,6.125-102.484,0l-226.594-69.609
	L340,600c0,55.234,134.312,100,300,100s300-44.766,300-100l-22.156-177.297L691.234,492.328z"/>
</svg>
