<?xml version="1.0" encoding="utf-8"?>
<!-- Generator: Adobe Illustrator 16.0.4, SVG Export Plug-In . SVG Version: 6.00 Build 0)  -->
<!DOCTYPE svg PUBLIC "-//W3C//DTD SVG 1.1//EN" "http://www.w3.org/Graphics/SVG/1.1/DTD/svg11.dtd">
<svg version="1.1" id="Capa_1" focusable="false" xmlns="http://www.w3.org/2000/svg" xmlns:xlink="http://www.w3.org/1999/xlink"
	 x="0px" y="0px" width="1280px" height="800px" viewBox="0 0 1280 800" enable-background="new 0 0 1280 800" xml:space="preserve"
	>
<path fill="#C20200" d="M902.5,300H665v87.5c0,62.031-50.469,112.5-112.5,112.5S440,449.531,440,387.5v-190l-101.406,60.938
	C308.438,276.406,290,309.062,290,344.062v73.906l-125,72.188c-23.906,13.75-32.188,44.375-18.281,68.281l125,216.562
	c13.75,23.906,44.375,32.031,68.281,18.281L501.562,700H715c55.156,0,100-44.844,100-100h25c27.656,0,50-22.344,50-50V450h12.5
	c20.781,0,37.5-16.719,37.5-37.5v-75C940,316.719,923.281,300,902.5,300z M1133.281,241.562L1008.281,25
	C994.531,1.094,963.906-7.031,940,6.719L778.438,100H618.75c-18.75,0-37.031,5.312-52.969,15.156l-52.344,32.656
	C498.75,156.875,490,172.969,490,190.156V387.5c0,34.531,27.969,62.5,62.5,62.5s62.5-27.969,62.5-62.5V250h287.5
	c48.281,0,87.5,39.219,87.5,87.5v44.531l125-72.188C1138.906,295.938,1147.031,265.469,1133.281,241.562z"/>
</svg>
